<?xml version="1.0" standalone="no"?>
<!DOCTYPE svg PUBLIC "-//W3C//DTD SVG 20010904//EN"
 "http://www.w3.org/TR/2001/REC-SVG-20010904/DTD/svg10.dtd">
<svg version="1.0" xmlns="http://www.w3.org/2000/svg"
 width="700.000000pt" height="700.000000pt" viewBox="0 0 700.000000 700.000000"
 preserveAspectRatio="xMidYMid meet">
<metadata>
Created by potrace 1.11, written by Peter Selinger 2001-2013
</metadata>
<g transform="translate(0.000000,700.000000) scale(0.100000,-0.100000)"
fill="#000000" stroke="none">
<path d="M2197 5696 c-714 -255 -1299 -465 -1301 -467 -3 -4 393 -3442 397
-3445 1 -1 499 -277 1105 -614 l1104 -611 1103 611 1104 612 6 41 c27 188 392
3403 387 3408 -7 7 -2565 920 -2592 925 -8 2 -599 -205 -1313 -460z m823
-1506 c272 -384 497 -699 500 -699 3 0 226 313 495 695 270 383 495 698 500
700 6 3 124 3 263 2 l253 -3 -635 -894 -636 -894 0 -813 0 -814 -245 0 -245 0
0 818 -1 817 -605 850 c-332 468 -618 869 -635 893 l-30 42 263 0 263 0 495
-700z"/>
</g>
</svg>
